<svg width="363" height="404" viewBox="0 0 363 404" fill="none" xmlns="http://www.w3.org/2000/svg">
<rect x="32" y="20" width="88" height="27" fill="#333333"/>
<rect x="47" y="47" width="58" height="77" fill="#333333"/>
<mask id="mask0_3_214" style="mask-type:alpha" maskUnits="userSpaceOnUse" x="0" y="0" width="337" height="323">
<path d="M336.632 165.674H283.571C286.075 170.742 287.484 176.448 287.484 182.483V285C287.484 305.987 270.471 323 249.484 323H87.8984C66.9117 323 49.8984 305.987 49.8984 285V182.483C49.8984 176.448 51.3076 170.742 53.8115 165.674H0L168.315 0L336.632 165.674Z" fill="#333333"/>
</mask>
<g mask="url(#mask0_3_214)">
<rect width="163.695" height="332.408" fill="#333333"/>
</g>
<rect x="109.757" y="216.379" width="20.0699" height="20.0699" fill="white"/>
<rect x="83.4155" y="188.783" width="20.0699" height="20.0699" fill="white"/>
<rect x="83.4155" y="216.379" width="20.0699" height="20.0699" fill="white"/>
<rect x="109.757" y="188.783" width="20.0699" height="20.0699" fill="white"/>
<rect x="237" y="209" width="121" height="189.919" rx="13" stroke="#333333" stroke-width="10"/>
<rect x="255" y="227" width="84" height="124" rx="7" stroke="#333333" stroke-width="10"/>
<path d="M297.151 366.055C303.483 366.055 308.54 370.754 308.54 376.462C308.54 382.17 303.483 386.87 297.151 386.87C290.819 386.87 285.76 382.17 285.76 376.462C285.76 370.754 290.819 366.055 297.151 366.055Z" fill="#333333" stroke="#333333"/>
<rect x="160" y="174.822" width="140.324" height="15.6444" fill="#333333"/>
<rect x="160" y="143.348" width="88.7895" height="15.3043" fill="#333333"/>
<path d="M160 118.882C189.816 121.187 174.388 89 183.8 89H221" stroke="#333333" stroke-width="14"/>
<rect x="154" y="40" width="29" height="15" fill="#333333"/>
<rect x="151" y="310" width="76" height="13" fill="#333333"/>
<circle cx="189" cy="47" r="13" fill="#333333"/>
<circle cx="227" cy="89" r="13" fill="#333333"/>
<circle cx="253" cy="151" r="13" fill="#333333"/>
<circle cx="305" cy="183" r="13" fill="#333333"/>
<path d="M160 236.22C202.92 232.64 162.025 274 198.871 274C232.883 274 212.638 274 226 274" stroke="#333333" stroke-width="14"/>
<rect x="32" y="20" width="88" height="27" fill="#333333"/>
<rect x="47" y="47" width="58" height="77" fill="#333333"/>
<rect x="237" y="209" width="121" height="189.919" rx="13" stroke="#333333" stroke-width="10"/>
<rect x="255.028" y="227.251" width="84" height="124" rx="7" stroke="#333333" stroke-width="10"/>
<path d="M297.151 366.055C303.483 366.055 308.54 370.754 308.54 376.462C308.54 382.17 303.483 386.87 297.151 386.87C290.819 386.87 285.76 382.17 285.76 376.462C285.76 370.754 290.819 366.055 297.151 366.055Z" fill="#333333" stroke="#333333"/>
<rect x="160" y="174.822" width="140.324" height="15.6444" fill="#333333"/>
<rect x="160" y="143.348" width="88.7895" height="15.3043" fill="#333333"/>
<path d="M160 118.882C189.816 121.187 174.388 89 183.8 89H221" stroke="#333333" stroke-width="14"/>
<rect x="154" y="40" width="29" height="15" fill="#333333"/>
<rect x="151" y="310" width="76" height="13" fill="#333333"/>
<circle cx="189" cy="47" r="13" fill="#333333"/>
<circle cx="227" cy="89" r="13" fill="#333333"/>
<circle cx="253" cy="151" r="13" fill="#333333"/>
<circle cx="305" cy="183" r="13" fill="#333333"/>
</svg>
