<svg width="367" height="404" viewBox="0 0 367 404" fill="none" xmlns="http://www.w3.org/2000/svg">
<rect x="36" y="20" width="88" height="27" fill="#333333"/>
<rect x="51" y="47" width="58" height="77" fill="#333333"/>
<g filter="url(#filter0_d_0_1)">
<mask id="mask0_0_1" style="mask-type:alpha" maskUnits="userSpaceOnUse" x="4" y="0" width="337" height="323">
<path d="M340.632 165.674H287.571C290.075 170.742 291.484 176.448 291.484 182.483V285C291.484 305.987 274.471 323 253.484 323H91.8984C70.9117 323 53.8984 305.987 53.8984 285V182.483C53.8984 176.448 55.3076 170.742 57.8115 165.674H4L172.315 0L340.632 165.674Z" fill="#333333"/>
</mask>
<g mask="url(#mask0_0_1)">
<rect x="4" width="163.695" height="332.408" fill="#333333"/>
</g>
<rect x="113.757" y="216.379" width="20.0699" height="20.0699" fill="white"/>
<rect x="87.4155" y="188.783" width="20.0699" height="20.0699" fill="white"/>
<rect x="87.4155" y="216.379" width="20.0699" height="20.0699" fill="white"/>
<rect x="113.757" y="188.783" width="20.0699" height="20.0699" fill="white"/>
</g>
<rect x="241" y="209" width="121" height="189.919" rx="13" stroke="#333333" stroke-width="10"/>
<rect x="259" y="227" width="84" height="124" rx="7" stroke="#333333" stroke-width="10"/>
<rect x="164" y="174.822" width="140.324" height="15.6444" fill="#333333"/>
<rect x="164" y="143.348" width="88.7895" height="15.3043" fill="#333333"/>
<path d="M164 118.882C193.816 121.187 178.388 89 187.8 89H225" stroke="#333333" stroke-width="14"/>
<rect x="158" y="40" width="29" height="15" fill="#333333"/>
<rect x="155" y="310" width="76" height="13" fill="#333333"/>
<circle cx="193" cy="47" r="13" fill="#333333"/>
<circle cx="231" cy="89" r="13" fill="#333333"/>
<circle cx="257" cy="151" r="13" fill="#333333"/>
<circle cx="309" cy="183" r="13" fill="#333333"/>
<path d="M164 236.22C206.92 232.64 166.025 274 202.871 274C236.883 274 216.638 274 230 274" stroke="#333333" stroke-width="14"/>
<rect x="36" y="20" width="88" height="27" fill="#333333"/>
<rect x="51" y="47" width="58" height="77" fill="#333333"/>
<rect x="241" y="209" width="121" height="189.919" rx="13" stroke="#333333" stroke-width="10"/>
<rect x="259.028" y="227.251" width="84" height="124" rx="7" stroke="#333333" stroke-width="10"/>
<circle cx="301" cy="377" r="12" fill="#333333"/>
<rect x="164" y="174.822" width="140.324" height="15.6444" fill="#333333"/>
<rect x="164" y="143.348" width="88.7895" height="15.3043" fill="#333333"/>
<path d="M164 118.882C193.816 121.187 178.388 89 187.8 89H225" stroke="#333333" stroke-width="14"/>
<rect x="158" y="40" width="29" height="15" fill="#333333"/>
<rect x="155" y="310" width="76" height="13" fill="#333333"/>
<circle cx="193" cy="47" r="13" fill="#333333"/>
<circle cx="231" cy="89" r="13" fill="#333333"/>
<circle cx="257" cy="151" r="13" fill="#333333"/>
<circle cx="309" cy="183" r="13" fill="#333333"/>
<g filter="url(#filter1_d_0_1)">
<ellipse cx="155.5" cy="317" rx="75.5" ry="6" fill="#333333"/>
</g>
<defs>
<filter id="filter0_d_0_1" x="0" y="0" width="171.695" height="331" filterUnits="userSpaceOnUse" color-interpolation-filters="sRGB">
<feFlood flood-opacity="0" result="BackgroundImageFix"/>
<feColorMatrix in="SourceAlpha" type="matrix" values="0 0 0 0 0 0 0 0 0 0 0 0 0 0 0 0 0 0 127 0" result="hardAlpha"/>
<feOffset dy="4"/>
<feGaussianBlur stdDeviation="2"/>
<feComposite in2="hardAlpha" operator="out"/>
<feColorMatrix type="matrix" values="0 0 0 0 0 0 0 0 0 0 0 0 0 0 0 0 0 0 0.25 0"/>
<feBlend mode="normal" in2="BackgroundImageFix" result="effect1_dropShadow_0_1"/>
<feBlend mode="normal" in="SourceGraphic" in2="effect1_dropShadow_0_1" result="shape"/>
</filter>
<filter id="filter1_d_0_1" x="70.5" y="311" width="170" height="60.5" filterUnits="userSpaceOnUse" color-interpolation-filters="sRGB">
<feFlood flood-opacity="0" result="BackgroundImageFix"/>
<feColorMatrix in="SourceAlpha" type="matrix" values="0 0 0 0 0 0 0 0 0 0 0 0 0 0 0 0 0 0 127 0" result="hardAlpha"/>
<feOffset dy="39"/>
<feGaussianBlur stdDeviation="4.75"/>
<feComposite in2="hardAlpha" operator="out"/>
<feColorMatrix type="matrix" values="0 0 0 0 0 0 0 0 0 0 0 0 0 0 0 0 0 0 0.25 0"/>
<feBlend mode="normal" in2="BackgroundImageFix" result="effect1_dropShadow_0_1"/>
<feBlend mode="normal" in="SourceGraphic" in2="effect1_dropShadow_0_1" result="shape"/>
</filter>
</defs>
</svg>
